<?xml version="1.0" encoding="UTF-8"?>
<svg id="Layer_2" xmlns="http://www.w3.org/2000/svg" viewBox="0 0 82.81 106.49">
  <defs>
    <style>
      .cls-1 {
        fill: #1b2a40;
        fill-rule: evenodd;
      }
    </style>
  </defs>
  <g id="Layer_1-2" data-name="Layer_1">
    <g>
      <path class="cls-1" d="M30.01.4C12.75,3.18.2,14.91,0,28.46c-.05,3.12.28,3.51,2.73,3.26,2.26-.23,3.57.15,5,1.42l1.15,1.02-.06,1.86c-.08,2.35.51,3.24,2.16,3.24,2.21,0,2.87-2.24,1.21-4.13-1.92-2.19-1.12-6.35,1.4-7.32,1.84-.7,2.38-2.43,1.16-3.72-1.41-1.5-3.91-.3-3.91,1.87,0,1.79-2.61,2.92-4.55,1.98C.04,24.9,10.37,10.41,21.76,6.26l1.93-.71.86.5c2.86,1.66.35,6.64-3.34,6.64-3.04,0-4.35,2.39-2.38,4.36,1.63,1.63,2.93,1.21,5.06-1.66,1.55-2.08,6.29-1.8,7.99.47,2.2,2.93,3.46,3.36,5.1,1.71,1.8-1.8.99-3.72-1.94-4.61-5.1-1.55-7.8-7.48-4.25-9.32,3.22-1.67,17.17-.42,20.62,1.83,4.5,2.95-1.61,10.22-6.5,7.72-3.35-1.71-5.96,2.96-2.85,5.09.91.62,1.81.55,3.58-.28,4.28-2,8.74-.33,9.26,3.48.29,2.14,1.77,3.36,3.55,2.91,2.55-.64,3-4.08.7-5.44-5.21-3.11-4.38-11.95.89-9.4,4.88,2.36,13.26,15.39,11.56,17.98-1.06,1.61-3.76,1.24-4.53-.63-.79-1.91-2.3-2.51-3.36-1.34-1.07,1.19-.22,3.14,1.37,3.14,2.22,0,3.4,4.06,1.79,6.17-.88,1.16-.88,2.28.02,2.99,1.6,1.26,2.98.15,2.98-2.4,0-3.34,2.75-5.82,3.96-3.57,1.13,2.11,2.65,13.53,1.98,14.83-1.71,3.31-6.06,1.32-5.55-2.54.41-3.08,0-3.95-1.85-3.95-2.14,0-2.78,2.26-1.13,4.03,1.76,1.89-.03,5.72-3.1,6.62-2.85.83-2.8,4.3.06,4.3.96,0,1.21-.2,2.85-2.23,1.39-1.72,4.5-2.71,5.82-1.85.6.39.64.56.64,2.89,0,1.87.13,2.83.55,3.95.8,2.13.21,2.8-1.93,2.21-.71-.2-1.17-.56-1.64-1.31-.72-1.14-1.81-1.41-2.6-.62-.87.87-.17,2.47,1.08,2.47,2,0,3.18,2.68,2.13,4.84-.68,1.4-.41,2.38.72,2.67,1.18.3,1.83-.63,1.74-2.47-.09-1.82.23-2.76,1.12-3.34,1.01-.66,1.61-.1,3.25,3.01,1.4,2.66,1.51,3.3.64,3.61-3.66,1.27-4.79,2.52-4.79,5.28,0,1.39-.11,1.68-1.05,2.94-1.19,1.59-1.18,1.53-.66,3.22.45,1.48.33,1.9-.83,2.94-.74.67-.93,1.09-1.25,2.81-.95,5.1-3.94,4.3-3.94-1.05v-2.18s1.3-1.13,1.3-1.13c1.61-1.39,1.8-2.67.58-3.73-1.68-1.44-4.06-.08-3.73,2.13.43,2.88-2.81,5.43-5.86,4.6-2.63-.72-4.23-.03-4.23,1.81s1.62,2.66,3.67,1.86c2.58-1.02,5.64-.47,6.74,1.21,1.45,2.22-3.12,3.24-6.85,1.54-4.3-1.97-7.53-1.31-10.57,2.15-3.5,3.97-8.57,2.94-8.03-1.64.15-1.3.11-1.44-.64-2.19-1.85-1.85-4.25-.53-4,2.21.03.29.57,1,1.21,1.57,2.83,2.57,2.23,6.31-1.37,8.43-1.39.82-1.81,1.86-1.28,3.13.94,2.24,3.62,2.02,4.5-.37,1.6-4.31,5.23-6.17,7.66-3.9,1.62,1.51,3.98.25,3.99-2.12.02-4.04,2.92-5.58,7.27-3.88,7.3,2.85,15.23-.46,16.9-7.06.2-.8.72-1.76,1.32-2.46,1.11-1.29,1.39-2.34,1.19-4.36-.14-1.32-.09-1.44.91-2.66,1.05-1.27,1.06-1.29.9-2.99l-.16-1.71,1.7-.74c4.63-2.02,4.74-3.67.74-11.26-3.44-6.54-3.48-6.72-1.8-10.09,1.86-3.74,1.98-5.14,1.04-11.69-2.47-17.02-9.86-29.88-20.05-34.86C51.6,1.11,38.17-.91,30.01.4"/>
      <path class="cls-1" d="M39.91,21.33c-.5.25-1.04.83-1.31,1.4-.78,1.66-3.46,2.64-5.63,2.06-1.04-.28-1.73-.82-3.31-2.6-1.45-1.63-4.11-.63-4.11,1.54,0,1.47.8,2.22,2.75,2.59,3.79.71,6,3.84,4.63,6.53-.76,1.49-.71,2.31.21,3.22,2.21,2.21,4.84-.2,3.56-3.26-1.14-2.73,1.05-6.99,3.59-6.99s3.94-2.11,2.45-3.88c-.81-.96-1.72-1.16-2.83-.61"/>
      <path class="cls-1" d="M46.62,26.92c-2.89.76-2.37,5.46.61,5.46,4.07,0,6.32,5.35,3.88,9.22-2.1,3.33,1.71,6.83,4.21,3.87.66-.79.67-.86.5-3.62-.3-4.99,2.12-8.32,5.38-7.38,2.9.83,4.91-2.51,2.78-4.64-1.28-1.28-2.74-1.15-4.43.4-2.83,2.61-7.98,1.99-9.34-1.13-.81-1.86-2.02-2.59-3.59-2.18"/>
      <path class="cls-1" d="M25.6,35.62c-1.27.71-1.66,1.69-1.47,3.77.4,4.45-3.76,7.67-8.41,6.51-3.21-.8-5.13.13-5.13,2.48,0,2.92,2.47,4.27,5.07,2.77,4.18-2.41,10.15-.57,10.15,3.11,0,2.95,3.1,4.66,5.22,2.88,1.78-1.5,1.47-4.01-.65-5.26-2.55-1.5-3.65-3.83-3.48-7.37l.1-1.96,1.57-1.39,1.57-1.39v-1.49c0-2.48-2.38-3.87-4.54-2.67"/>
      <path class="cls-1" d="M45.17,38.69c-.73.73-.79.91-.64,2,.45,3.3-3.26,6.08-6.64,4.97-2.18-.71-3.11-.49-3.83.91-1.18,2.28,1.05,4.18,3.61,3.07,3.49-1.51,7.56-.12,7.56,2.59,0,2.46,2.53,3.94,4.14,2.44,1.33-1.24,1.06-2.79-.7-4.06-2.72-1.95-3.19-6.64-.83-8.13.7-.44,1.11-.93,1.26-1.51.68-2.55-2.07-4.15-3.94-2.28"/>
      <path class="cls-1" d="M38.41,53.82c-1.25.63-1.63,1.46-1.46,3.16.44,4.19-3.87,6.76-8.85,5.3-2.8-.82-4.81,2.21-2.94,4.43.97,1.15,1.89,1.26,3.9.45,4.43-1.77,8.81,0,8.81,3.58,0,1.82,1.05,2.95,2.75,2.95,3.26,0,3.77-3.59.8-5.63-2.72-1.87-3.35-8.29-.89-9.07.25-.08.76-.5,1.12-.94,1.93-2.29-.6-5.58-3.26-4.23"/>
      <path class="cls-1" d="M59.63,60.51c-2.27,2.53-2.84,2.83-5.49,2.81-1.83-.01-2.71-.41-3.47-1.56-1.5-2.25-4.64-1.75-4.72.76-.05,1.79,1.06,2.69,3.22,2.59,3.34-.15,5.63,3.47,4.47,7.08-.84,2.61.21,4.5,2.32,4.15,1.99-.32,2.74-1.94,1.84-3.96-1.63-3.68-.11-7.34,3.2-7.73,1.32-.16,1.75-.33,2.24-.91,2.09-2.43-1.46-5.63-3.6-3.24"/>
      <path class="cls-1" d="M66.12,65.65c-.53.59-.54,1.32-.03,2,1.22,1.61-.47,4.61-2.6,4.61-1.38,0-2.05,1.54-1.09,2.5.88.88,1.28.82,2.59-.39,2.09-1.93,3.46-2.08,4.87-.54,1.3,1.42,2.58,1.33,3.04-.19.24-.8-.87-1.91-1.93-1.91-1.5,0-3.33-2.67-2.67-3.91.99-1.85-.82-3.67-2.17-2.17"/>
      <path class="cls-1" d="M30.73,70.44c-.82.48-1.24,1.65-1.08,3.03.36,3.06-3.46,5.58-6.72,4.42-2.32-.82-3.94-.01-3.94,1.97,0,2.09,1.65,3.02,3.73,2.11,3.77-1.67,7.82-.12,7.82,2.99,0,1.64.82,2.51,2.36,2.51,2.81,0,3.24-2.59.79-4.72-1.75-1.51-2.1-2.32-2.1-4.78,0-1.7.38-2.75,1.08-2.97.79-.25,1.81-1.67,1.81-2.52,0-1.66-2.27-2.89-3.74-2.04"/>
      <path class="cls-1" d="M46.29,72.94c-.37.47-.54,1.07-.54,1.91,0,1.69-.86,2.86-2.94,3.96-1.06.57-1.92.67-2.18.26-.29-.47-2.37-.31-2.84.22-1.75,1.93,1.02,4.49,3.02,2.8,2.13-1.79,5.8-.29,6.55,2.67.71,2.8,4.16,2.86,4.16.07,0-.93-.12-1.11-1.41-2.07-2.79-2.06-3.33-4.77-1.34-6.7.87-.84,1.18-1.35,1.18-1.91,0-1.77-2.55-2.62-3.65-1.21"/>
    </g>
  </g>
</svg>