<svg width="10" height="17" viewBox="0 0 10 17" fill="none" xmlns="http://www.w3.org/2000/svg">
<path d="M3.0058 9.68668C2.94316 9.68668 1.56497 9.68668 0.938515 9.68668C0.604408 9.68668 0.5 9.56139 0.5 9.24816C0.5 8.4129 0.5 7.55675 0.5 6.72148C0.5 6.38737 0.62529 6.28296 0.938515 6.28296H3.0058C3.0058 6.22032 3.0058 5.00918 3.0058 4.44538C3.0058 3.61011 3.15197 2.81661 3.56961 2.08575C4.00812 1.33401 4.63457 0.832848 5.42807 0.540505C5.95012 0.35257 6.47216 0.269043 7.03596 0.269043H9.08237C9.37471 0.269043 9.5 0.394333 9.5 0.686676V3.06719C9.5 3.35953 9.37471 3.48482 9.08237 3.48482C8.51856 3.48482 7.95476 3.48482 7.39095 3.5057C6.82715 3.5057 6.5348 3.77716 6.5348 4.36185C6.51392 4.9883 6.5348 5.59387 6.5348 6.2412H8.95708C9.29118 6.2412 9.41647 6.36649 9.41647 6.7006V9.22728C9.41647 9.56139 9.31207 9.6658 8.95708 9.6658C8.20534 9.6658 6.59745 9.6658 6.5348 9.6658V16.4732C6.5348 16.8282 6.43039 16.9535 6.05452 16.9535C5.17749 16.9535 4.32135 16.9535 3.44432 16.9535C3.13109 16.9535 3.0058 16.8282 3.0058 16.515C3.0058 14.3224 3.0058 9.74932 3.0058 9.68668Z" fill="#F7F7EE"/>
</svg>
