<svg width="16" height="16" viewBox="0 0 16 16" fill="none" xmlns="http://www.w3.org/2000/svg">
<path d="M15.4963 15.1113V15.1106H15.5V9.59209C15.5 6.89238 14.9247 4.81274 11.8004 4.81274C10.2984 4.81274 9.29045 5.64535 8.87897 6.4347H8.83552V5.06478H5.87317V15.1106H8.95779V10.1363C8.95779 8.82657 9.20356 7.5601 10.8092 7.5601C12.3912 7.5601 12.4148 9.05478 12.4148 10.2203V15.1113H15.4963Z" fill="#F7F7EE"/>
<path d="M0.723877 5.03687H3.85821V14.8876H0.723877V5.03687Z" fill="#F7F7EE"/>
<path d="M2.29104 0.111328C1.3023 0.111328 0.5 0.909891 0.5 1.89402C0.5 2.87815 1.3023 3.69342 2.29104 3.69342C3.27979 3.69342 4.08209 2.87815 4.08209 1.89402C4.08147 0.909891 3.27916 0.111328 2.29104 0.111328V0.111328Z" fill="#F7F7EE"/>
</svg>
