<svg width="18" height="15" viewBox="0 0 18 15" fill="none" xmlns="http://www.w3.org/2000/svg">
<path d="M17.5 2.34027C16.8678 2.61758 16.1942 2.80139 15.4919 2.89064C16.2144 2.45927 16.7658 1.78139 17.0251 0.964328C16.3514 1.36595 15.6077 1.64964 14.8151 1.80795C14.1754 1.12689 13.2638 0.705078 12.2693 0.705078C10.3398 0.705078 8.78644 2.2712 8.78644 4.19114C8.78644 4.46739 8.80981 4.73302 8.86719 4.98589C5.96975 4.84458 3.40594 3.45589 1.68362 1.34045C1.38294 1.86214 1.20656 2.45927 1.20656 3.10208C1.20656 4.30908 1.82812 5.37902 2.75463 5.99845C2.19469 5.98783 1.64538 5.82527 1.18 5.5692C1.18 5.57983 1.18 5.59364 1.18 5.60745C1.18 7.30108 2.38806 8.70783 3.97225 9.03189C3.68856 9.10945 3.37937 9.14664 3.0585 9.14664C2.83538 9.14664 2.61012 9.13389 2.39869 9.08714C2.85025 10.4673 4.13163 11.482 5.65525 11.515C4.4695 12.4425 2.96394 13.0014 1.33406 13.0014C1.04825 13.0014 0.774125 12.9886 0.5 12.9536C2.04381 13.9491 3.87344 14.5176 5.8465 14.5176C12.2597 14.5176 15.766 9.20508 15.766 4.6002C15.766 4.44614 15.7607 4.29739 15.7533 4.1497C16.4449 3.65883 17.0261 3.04577 17.5 2.34027Z" fill="#F7F7EE"/>
</svg>
